<svg width="1024" height="1024" viewBox="0 0 1024 1024" xmlns="http://www.w3.org/2000/svg"><path d="M820.148 188.08c-2.767-23.903-7.072-35.048-24.72-49.172l-1.109-.89c-9.671-7.16-30.395-19.764-52.052-14.95-21.893 5.046-40.74 19.558-51.905 39.964L510.957 500.737 320.33 770.616l50.18 1.535c1.81.056 3.656.085 5.539.085 72.319 0 203.495-38.104 221.628-214.141l202.281-303.647c13.876-18.604 22.967-42.458 20.19-66.367zM652.61 580.755c-50.405 321.026-414.896 221.45-414.896 221.45l154.638-224.19C239.838 596.238 112 649.891 112 736.507 112 845.162 313.224 902 512 902s400-56.853 400-165.493c0-82.616-116.305-135.244-259.39-155.753z" fill="#5288F5" fill-rule="nonzero"/></svg>